<?xml version="1.0" encoding="UTF-8"?>
<svg width="24px" height="24px" viewBox="0 0 24 24" version="1.1" xmlns="http://www.w3.org/2000/svg" xmlns:xlink="http://www.w3.org/1999/xlink">
    <title>logo-poly copy</title>
    <g id="Enh.---Navigation" stroke="none" stroke-width="1" fill="none" fill-rule="evenodd">
        <g id="header-dd-Menus" transform="translate(-986.000000, -101.000000)">
            <g id="logo-poly-copy" transform="translate(986.000000, 101.000000)">
                <rect id="Rectangle" fill="#8147E5" x="0" y="0" width="24" height="24" rx="4"></rect>
                <path d="M16.5720311,9.70750318 C16.2767911,9.54133107 15.8971968,9.54133107 15.5597796,9.70750318 L13.1978596,11.0784231 L11.5951281,11.9508266 L9.27538519,13.3217465 C8.98014518,13.4879186 8.60055089,13.4879186 8.26313373,13.3217465 L6.44951654,12.2416278 C6.15427653,12.0754557 5.94339081,11.7431115 5.94339081,11.3692242 L5.94339081,9.29207291 C5.94339081,8.9597287 6.11209939,8.62738448 6.44951654,8.41966935 L8.26313373,7.38109368 C8.55837374,7.21492158 8.93796804,7.21492158 9.27538519,7.38109368 L11.0890024,8.46121238 C11.3842424,8.62738448 11.5951281,8.9597287 11.5951281,9.33361594 L11.5951281,10.7045358 L13.1978596,9.79058923 L13.1978596,8.37812632 C13.1978596,8.04578211 13.029151,7.7134379 12.6917339,7.50572276 L9.31756233,5.55320051 C9.02232233,5.3870284 8.64272803,5.3870284 8.30531088,5.55320051 L4.84678507,7.54726579 C4.50936792,7.7134379 4.34065934,8.04578211 4.34065934,8.37812632 L4.34065934,12.2831708 C4.34065934,12.615515 4.50936792,12.9478593 4.84678507,13.1555744 L8.26313373,15.1080967 C8.55837374,15.2742688 8.93796804,15.2742688 9.27538519,15.1080967 L11.5951281,13.7787198 L13.1978596,12.8647732 L15.5176025,11.5353964 C15.8128425,11.3692242 16.1924368,11.3692242 16.529854,11.5353964 L18.3434712,12.573972 C18.6387112,12.7401441 18.8495969,13.0724883 18.8495969,13.4463756 L18.8495969,15.5235269 C18.8495969,15.8558711 18.6808883,16.1882153 18.3434712,16.3959305 L16.5720311,17.4345061 C16.2767911,17.6006783 15.8971968,17.6006783 15.5597796,17.4345061 L13.7461625,16.3959305 C13.4509224,16.2297584 13.2400367,15.8974142 13.2400367,15.5235269 L13.2400367,14.1941501 L11.6373053,15.1080967 L11.6373053,16.4790165 C11.6373053,16.8113607 11.8060138,17.143705 12.143431,17.3514201 L15.5597796,19.3039423 C15.8550197,19.4701145 16.234614,19.4701145 16.5720311,19.3039423 L19.9883798,17.3514201 C20.2836198,17.185248 20.4945055,16.8529038 20.4945055,16.4790165 L20.4945055,12.532429 C20.4945055,12.2000848 20.3257969,11.8677406 19.9883798,11.6600254 L16.5720311,9.70750318 Z" id="Path" fill="#FFFFFF" fill-rule="nonzero"></path>
            </g>
        </g>
    </g>
</svg>